<mxfile host="app.diagrams.net" modified="2022-08-08T08:17:46.674Z" agent="5.0 (Windows NT 10.0; Win64; x64) AppleWebKit/537.36 (KHTML, like Gecko) Chrome/103.0.0.0 Safari/537.36" etag="ApngtlmAecMz0EkLxLy4" version="20.2.3" type="github">
  <diagram id="C5RBs43oDa-KdzZeNtuy" name="Page-1">
    <mxGraphModel dx="1185" dy="635" grid="0" gridSize="10" guides="1" tooltips="1" connect="1" arrows="1" fold="1" page="1" pageScale="1" pageWidth="3300" pageHeight="4681" math="0" shadow="0">
      <root>
        <mxCell id="WIyWlLk6GJQsqaUBKTNV-0" />
        <mxCell id="WIyWlLk6GJQsqaUBKTNV-1" parent="WIyWlLk6GJQsqaUBKTNV-0" />
        <mxCell id="n1_9EqMR1EgKt_SZe2bX-2" value="" style="edgeStyle=orthogonalEdgeStyle;rounded=0;orthogonalLoop=1;jettySize=auto;html=1;" edge="1" parent="WIyWlLk6GJQsqaUBKTNV-1" source="n1_9EqMR1EgKt_SZe2bX-0" target="n1_9EqMR1EgKt_SZe2bX-1">
          <mxGeometry relative="1" as="geometry" />
        </mxCell>
        <mxCell id="n1_9EqMR1EgKt_SZe2bX-0" value="现场实施/运维" style="rounded=1;whiteSpace=wrap;html=1;fillColor=#f8cecc;strokeColor=#b85450;strokeWidth=1;perimeterSpacing=0;" vertex="1" parent="WIyWlLk6GJQsqaUBKTNV-1">
          <mxGeometry x="65" y="402" width="100" height="40" as="geometry" />
        </mxCell>
        <mxCell id="n1_9EqMR1EgKt_SZe2bX-16" style="edgeStyle=orthogonalEdgeStyle;rounded=0;orthogonalLoop=1;jettySize=auto;html=1;exitX=1;exitY=0.5;exitDx=0;exitDy=0;" edge="1" parent="WIyWlLk6GJQsqaUBKTNV-1" source="n1_9EqMR1EgKt_SZe2bX-1" target="n1_9EqMR1EgKt_SZe2bX-14">
          <mxGeometry relative="1" as="geometry" />
        </mxCell>
        <mxCell id="n1_9EqMR1EgKt_SZe2bX-1" value="现场运维负责人" style="whiteSpace=wrap;html=1;rounded=1;fillColor=#e1d5e7;strokeColor=#9673a6;strokeWidth=1;perimeterSpacing=0;" vertex="1" parent="WIyWlLk6GJQsqaUBKTNV-1">
          <mxGeometry x="219" y="402" width="120" height="40" as="geometry" />
        </mxCell>
        <mxCell id="n1_9EqMR1EgKt_SZe2bX-23" style="edgeStyle=orthogonalEdgeStyle;rounded=0;orthogonalLoop=1;jettySize=auto;html=1;entryX=0;entryY=0.5;entryDx=0;entryDy=0;" edge="1" parent="WIyWlLk6GJQsqaUBKTNV-1" source="n1_9EqMR1EgKt_SZe2bX-3" target="n1_9EqMR1EgKt_SZe2bX-22">
          <mxGeometry relative="1" as="geometry" />
        </mxCell>
        <mxCell id="n1_9EqMR1EgKt_SZe2bX-3" value="王冠林" style="whiteSpace=wrap;html=1;rounded=1;fillColor=#d5e8d4;strokeColor=#82b366;strokeWidth=1;perimeterSpacing=0;" vertex="1" parent="WIyWlLk6GJQsqaUBKTNV-1">
          <mxGeometry x="521" y="403" width="110" height="40" as="geometry" />
        </mxCell>
        <mxCell id="n1_9EqMR1EgKt_SZe2bX-40" style="edgeStyle=orthogonalEdgeStyle;rounded=0;orthogonalLoop=1;jettySize=auto;html=1;entryX=0.5;entryY=0;entryDx=0;entryDy=0;" edge="1" parent="WIyWlLk6GJQsqaUBKTNV-1" source="n1_9EqMR1EgKt_SZe2bX-5" target="n1_9EqMR1EgKt_SZe2bX-0">
          <mxGeometry relative="1" as="geometry">
            <Array as="points">
              <mxPoint x="865" y="342" />
              <mxPoint x="115" y="342" />
            </Array>
          </mxGeometry>
        </mxCell>
        <mxCell id="n1_9EqMR1EgKt_SZe2bX-5" value="杨清宝" style="whiteSpace=wrap;html=1;rounded=1;fillColor=#fff2cc;strokeColor=#d6b656;strokeWidth=1;perimeterSpacing=0;" vertex="1" parent="WIyWlLk6GJQsqaUBKTNV-1">
          <mxGeometry x="806" y="402" width="111" height="40.5" as="geometry" />
        </mxCell>
        <mxCell id="n1_9EqMR1EgKt_SZe2bX-17" style="edgeStyle=orthogonalEdgeStyle;rounded=0;orthogonalLoop=1;jettySize=auto;html=1;" edge="1" parent="WIyWlLk6GJQsqaUBKTNV-1" source="n1_9EqMR1EgKt_SZe2bX-14" target="n1_9EqMR1EgKt_SZe2bX-3">
          <mxGeometry relative="1" as="geometry" />
        </mxCell>
        <mxCell id="n1_9EqMR1EgKt_SZe2bX-38" style="edgeStyle=orthogonalEdgeStyle;rounded=0;orthogonalLoop=1;jettySize=auto;html=1;exitX=0.5;exitY=1;exitDx=0;exitDy=0;" edge="1" parent="WIyWlLk6GJQsqaUBKTNV-1" source="n1_9EqMR1EgKt_SZe2bX-14">
          <mxGeometry relative="1" as="geometry">
            <mxPoint x="433.3333333333335" y="520" as="targetPoint" />
          </mxGeometry>
        </mxCell>
        <mxCell id="n1_9EqMR1EgKt_SZe2bX-14" value="是否解决" style="rhombus;whiteSpace=wrap;html=1;strokeWidth=1;" vertex="1" parent="WIyWlLk6GJQsqaUBKTNV-1">
          <mxGeometry x="393" y="382" width="80" height="80" as="geometry" />
        </mxCell>
        <mxCell id="n1_9EqMR1EgKt_SZe2bX-19" value="否" style="text;html=1;align=center;verticalAlign=middle;resizable=0;points=[];autosize=1;strokeColor=none;fillColor=none;" vertex="1" parent="WIyWlLk6GJQsqaUBKTNV-1">
          <mxGeometry x="477" y="399" width="30" height="26" as="geometry" />
        </mxCell>
        <mxCell id="n1_9EqMR1EgKt_SZe2bX-21" value="是" style="text;html=1;align=center;verticalAlign=middle;resizable=0;points=[];autosize=1;strokeColor=none;fillColor=none;" vertex="1" parent="WIyWlLk6GJQsqaUBKTNV-1">
          <mxGeometry x="432" y="465" width="30" height="26" as="geometry" />
        </mxCell>
        <mxCell id="n1_9EqMR1EgKt_SZe2bX-24" value="" style="edgeStyle=orthogonalEdgeStyle;rounded=0;orthogonalLoop=1;jettySize=auto;html=1;" edge="1" parent="WIyWlLk6GJQsqaUBKTNV-1" source="n1_9EqMR1EgKt_SZe2bX-22" target="n1_9EqMR1EgKt_SZe2bX-5">
          <mxGeometry relative="1" as="geometry" />
        </mxCell>
        <mxCell id="n1_9EqMR1EgKt_SZe2bX-42" style="edgeStyle=orthogonalEdgeStyle;rounded=0;orthogonalLoop=1;jettySize=auto;html=1;entryX=0.5;entryY=1;entryDx=0;entryDy=0;" edge="1" parent="WIyWlLk6GJQsqaUBKTNV-1" source="n1_9EqMR1EgKt_SZe2bX-22" target="n1_9EqMR1EgKt_SZe2bX-0">
          <mxGeometry relative="1" as="geometry">
            <Array as="points">
              <mxPoint x="716" y="518" />
              <mxPoint x="115" y="518" />
            </Array>
          </mxGeometry>
        </mxCell>
        <mxCell id="n1_9EqMR1EgKt_SZe2bX-22" value="是否解决" style="rhombus;whiteSpace=wrap;html=1;strokeWidth=1;" vertex="1" parent="WIyWlLk6GJQsqaUBKTNV-1">
          <mxGeometry x="676" y="382" width="80" height="80" as="geometry" />
        </mxCell>
        <mxCell id="n1_9EqMR1EgKt_SZe2bX-27" value="否" style="text;html=1;align=center;verticalAlign=middle;resizable=0;points=[];autosize=1;strokeColor=none;fillColor=none;" vertex="1" parent="WIyWlLk6GJQsqaUBKTNV-1">
          <mxGeometry x="761" y="396" width="30" height="26" as="geometry" />
        </mxCell>
        <mxCell id="n1_9EqMR1EgKt_SZe2bX-35" value="是" style="text;html=1;align=center;verticalAlign=middle;resizable=0;points=[];autosize=1;strokeColor=none;fillColor=none;" vertex="1" parent="WIyWlLk6GJQsqaUBKTNV-1">
          <mxGeometry x="731" y="465" width="30" height="26" as="geometry" />
        </mxCell>
      </root>
    </mxGraphModel>
  </diagram>
</mxfile>
